<svg xmlns="http://www.w3.org/2000/svg" width="43" height="43" viewBox="0 0 43 43"><defs><clipPath id="fk2wa"><path fill="#fff" d="M0 43V0h43v43zm2.5-21.5c0 10.493 8.507 19 19 19s19-8.507 19-19-8.507-19-19-19-19 8.507-19 19z"/></clipPath></defs><g><g opacity="-1"><path fill="#f8f8f8" d="M21.5 2.5c10.493 0 19 8.507 19 19s-8.507 19-19 19-19-8.507-19-19 8.507-19 19-19z"/><path fill="none" stroke="#eee" stroke-linecap="round" stroke-linejoin="round" stroke-miterlimit="20" stroke-width="4" d="M21.5 2.5c10.493 0 19 8.507 19 19s-8.507 19-19 19-19-8.507-19-19 8.507-19 19-19z" clip-path="url(&quot;#fk2wa&quot;)"/></g><g opacity="-1"><path fill="#dedede" d="M29.756 15.864V26.92a.57.57 0 0 1-.57.569H13.54a.57.57 0 0 1-.57-.569V15.864c0-.314.255-.568.57-.568h15.648c.314 0 .569.254.569.568zm-1.139.57h-14.51v9.916h14.51zm-13.204 1.895a.57.57 0 0 1 .784-.185l5.166 3.18 5.166-3.18a.57.57 0 0 1 .597.968l-5.465 3.364a.57.57 0 0 1-.597 0l-5.465-3.364a.568.568 0 0 1-.186-.783z"/></g></g></svg>